<svg xmlns="http://www.w3.org/2000/svg" viewBox="0 0 36 45" x="0px" y="0px" fill="inherit"><path d="M31.23529,3a3.53346,3.53346,0,0,0-3.52941,3.52941V8.29412H23.29412V6.52941a.88236.88236,0,0,0-1.76471,0V8.29412H18.88235V6.52941a.88235.88235,0,0,0-1.7647,0V8.29412H14.47059V6.52941a.88236.88236,0,0,0-1.76471,0V8.29412H8.29412V6.52941A3.53346,3.53346,0,0,0,4.76471,3a.88236.88236,0,1,0,0,1.76471,1.76644,1.76644,0,0,1,1.7647,1.7647V18a11.47059,11.47059,0,0,0,22.94118,0V6.52941a1.76644,1.76644,0,0,1,1.7647-1.7647.88236.88236,0,1,0,0-1.76471ZM17.11765,10.05882V27.66118a9.61567,9.61567,0,0,1-2.68621-.64377.84635.84635,0,0,0,.03915-.19388V10.05882ZM8.29412,18V10.05882h4.41176V26.12434A9.70028,9.70028,0,0,1,8.29412,18Zm10.58823-7.94118h2.64706V26.82353a.84561.84561,0,0,0,.0405.20039,9.62714,9.62714,0,0,1-2.68756.64233Zm4.41177,16.06412V10.05882h4.41176V18A9.69939,9.69939,0,0,1,23.29412,26.12294Z"/><path d="M22.41176,31.23529H13.58824a.88236.88236,0,1,0,0,1.76471h8.82352a.88236.88236,0,1,0,0-1.76471Z"/></svg>